Coordinates
version=1
nRows=24
nColumns=24
inDegrees=yes

Units are S.I. units (second, meters, Newtons, ...)
Angles are in degrees.

endheader
time	pelvis_tilt	pelvis_list	pelvis_rotation	pelvis_tx	pelvis_ty	pelvis_tz	hip_flexion_r	hip_adduction_r	hip_rotation_r	knee_angle_r	ankle_angle_r	subtalar_angle_r	mtp_angle_r	hip_flexion_l	hip_adduction_l	hip_rotation_l	knee_angle_l	ankle_angle_l	subtalar_angle_l	mtp_angle_l	lumbar_extension	lumbar_bending	lumbar_rotation
      4.57500000	     -8.82422846	      6.80172212	      2.26785435	     -0.85439325	     -0.00729858	     -0.29739287	     24.75494141	    -12.17435165	     -8.70030271	    -64.58672807	    -15.33610469	      4.67554930	     37.36216045	     13.90549585	     12.27389383	     12.59486626	    -13.37147260	     -0.28255385	     -7.54662006	      4.05195468	      8.05877558	     -8.96743576	      2.84997688
      4.58000000	     -8.74607532	      6.55473523	      2.48319834	     -0.84959387	     -0.00675596	     -0.29783063	     25.29054717	    -11.95489670	     -8.91042928	    -64.24878274	    -14.66644421	      4.71057751	     37.60832084	     13.38761886	     12.07228272	     12.96804374	    -13.23329963	     -0.06530706	     -7.58361906	      3.91938233	      7.89314757	     -8.76487179	      2.41552746
      4.58500000	     -8.67304315	      6.32022152	      2.67208271	     -0.84475747	     -0.00627753	     -0.29825509	     25.82464562	    -11.74443320	     -9.10756507	    -63.85547926	    -14.02229982	      4.70171365	     37.79222482	     12.86153001	     11.86779010	     13.29759479	    -13.06111935	      0.18565169	     -7.60967220	      3.85655660	      7.75516047	     -8.56317697	      2.06192570
      4.59000000	     -8.56545364	      6.11020623	      2.89912613	     -0.84000225	     -0.00577433	     -0.29871364	     26.29505738	    -11.56986603	     -9.31937842	    -63.39610136	    -13.36751355	      4.68203547	     37.93087774	     12.30086022	     11.68820568	     13.63192457	    -12.88414010	      0.39100247	     -7.59238133	      3.76571244	      7.55342720	     -8.39213745	      1.61875298
      4.59500000	     -8.43389353	      5.92152427	      3.10143482	     -0.83523916	     -0.00529950	     -0.29913672	     26.73024660	    -11.40936962	     -9.51992881	    -62.88199928	    -12.72223479	      4.60550586	     37.97283139	     11.70494812	     11.51508405	     13.93784365	    -12.68437815	      0.61913534	     -7.56177243	      3.66982602	      7.33578725	     -8.23567712	      1.24925979
      4.60000000	     -8.32613357	      5.72599927	      3.27161542	     -0.83049738	     -0.00487830	     -0.29949678	     27.18811969	    -11.20649227	     -9.65318931	    -62.30828705	    -12.12837501	      4.51261329	     37.94196429	     11.13609869	     11.31558293	     14.18466337	    -12.46765976	      0.85182610	     -7.49491746	      3.64796692	      7.14971138	     -8.06917677	      0.88198358
      4.60500000	     -8.20693206	      5.54354841	      3.43926262	     -0.82576525	     -0.00449275	     -0.29983471	     27.61701066	    -11.01090630	     -9.77579923	    -61.67816508	    -11.54823195	      4.39115500	     37.83584550	     10.55326165	     11.11976216	     14.40863108	    -12.24054025	      1.08459500	     -7.40501322	      3.67388619	      6.95108208	     -7.91048694	      0.53738061
      4.61000000	     -8.08083662	      5.37134767	      3.60088882	     -0.82104902	     -0.00414578	     -0.30013123	     28.02341531	    -10.81411067	     -9.87786182	    -60.99218638	    -10.98744887	      4.25133499	     37.65707780	      9.96110634	     10.92383230	     14.60851510	    -12.00040140	      1.31521977	     -7.30710822	      3.73587959	      6.74594146	     -7.76323699	      0.20115525
      4.61500000	     -7.95968501	      5.21151207	      3.75066066	     -0.81631848	     -0.00386712	     -0.30038408	     28.42145704	    -10.61949764	     -9.95734929	    -60.25548909	    -10.45395288	      4.10240502	     37.43049191	      9.36884106	     10.73214163	     14.79686785	    -11.74728600	      1.56480036	     -7.22249129	      3.82758142	      6.55427389	     -7.63291202	     -0.10191243
      4.62000000	     -7.74899949	      5.09968811	      3.90177351	     -0.81160919	     -0.00352180	     -0.30061120	     28.69998167	    -10.46636530	    -10.02715197	    -59.48125960	     -9.83096630	      3.97616155	     36.81799359	      8.66987771	     10.57592458	     14.98489198	    -11.47248289	      1.75259528	     -7.09385956	      3.94536492	      6.25361258	     -7.54114294	     -0.40159811
      4.62500000	     -7.64094093	      4.94508103	      4.07962001	     -0.80696273	     -0.00333463	     -0.30087501	     29.06804590	    -10.27599757	    -10.09119892	    -58.62870209	     -9.32220313	      3.82961455	     36.48151972	      8.12142729	     10.39402138	     15.16364203	    -11.26258037	      1.96850926	     -7.03305885	      4.04344214	      6.05778822	     -7.40925037	     -0.75960707
      4.63000000	     -7.59666721	      4.82785953	      4.19041619	     -0.80230694	     -0.00328527	     -0.30099110	     29.51651700	    -10.07360763	    -10.02256704	    -57.73251888	     -8.89217559	      3.69435374	     36.30357967	      7.63120207	     10.23468660	     15.36431075	    -11.03327620	      2.19557859	     -6.99933961	      4.12146486	      5.94752941	     -7.32237691	     -0.95561976
      4.63500000	     -7.29993600	      4.71411860	      4.40957739	     -0.79764846	     -0.00295922	     -0.30123185	     29.60681716	     -9.94091057	    -10.14950193	    -56.76889791	     -8.35383626	      3.56200676	     35.53208855	      6.85906416	     10.07789925	     15.59644487	    -10.79699103	      2.38923209	     -6.95613411	      4.18169705	      5.53279548	     -7.23289479	     -1.39584596
      4.64000000	     -7.16648553	      4.57728667	      4.58946525	     -0.79291172	     -0.00283597	     -0.30143135	     29.86718558	     -9.76463256	    -10.19723303	    -55.75441473	     -7.85113781	      3.53300201	     34.83901581	      6.26497887	      9.90218445	     15.83157368	    -10.56404747	      2.57958305	     -7.00184414	      4.18178704	      5.33255885	     -7.11651546	     -1.70703314
      4.64500000	     -7.01711921	      4.50652767	      4.72141376	     -0.78825438	     -0.00277298	     -0.30147555	     30.12384539	     -9.61173551	    -10.13290441	    -54.74610466	     -7.23097077	      3.62732091	     33.79561355	      5.65404727	      9.78262431	     16.13145680	    -10.33981247	      2.75845581	     -7.10340037	      4.05682328	      5.09351579	     -7.07594923	     -1.92737517
      4.65000000	     -6.95314816	      4.36988109	      4.94247737	     -0.78361489	     -0.00278402	     -0.30165950	     30.40803753	     -9.45166886	    -10.17101575	    -53.59625942	     -6.90905745	      3.54640849	     33.41971092	      5.18391079	      9.62073577	     16.39044345	    -10.19493758	      2.96575019	     -7.15251463	      4.02417239	      4.94661064	     -6.97301934	     -2.28502775
      4.65500000	     -6.75899096	      4.26178688	      5.14024912	     -0.77903233	     -0.00267401	     -0.30173862	     30.53410108	     -9.28780959	    -10.15465371	    -52.41861254	     -6.51671737	      3.58419956	     32.65400614	      4.55242874	      9.46712125	     16.77236068	    -10.02010933	      3.13317261	     -7.32414329	      3.82042268	      4.63430046	     -6.89881275	     -2.65603261
      4.66000000	     -6.65723733	      4.17512464	      5.28237704	     -0.77434180	     -0.00270302	     -0.30180045	     30.75394330	     -9.13569792	    -10.07737004	    -51.23914050	     -5.95532540	      3.83265708	     31.50892143	      4.01076830	      9.34666136	     17.12364021	     -9.84601275	      3.31947434	     -7.58411305	      3.35134563	      4.45727775	     -6.83284488	     -2.89526994
      4.66500000	     -6.59674494	      4.03803791	      5.52726127	     -0.76978897	     -0.00277101	     -0.30189093	     30.96264254	     -8.98113350	    -10.09512372	    -49.93017181	     -5.72139506	      3.82083106	     30.99646924	      3.57384243	      9.17892261	     17.49500167	     -9.75944080	      3.54154180	     -7.68219478	      3.18840000	      4.28927413	     -6.74151366	     -3.27181114
      4.67000000	     -6.62392487	      3.89485322	      5.66219757	     -0.76518308	     -0.00294919	     -0.30188146	     31.26559767	     -8.76354501	     -9.94804848	    -48.56347088	     -5.53792819	      3.94371021	     30.69910883	      3.24032370	      9.00469800	     17.71470754	     -9.67020169	      3.71621017	     -7.82303807	      3.10207834	      4.24557773	     -6.62449767	     -3.46160564
      4.67500000	     -6.39321429	      3.77230028	      5.92676241	     -0.76060542	     -0.00283520	     -0.30198779	     31.21020790	     -8.64197490	    -10.02971458	    -47.16626034	     -5.16859516	      4.05916847	     29.61935586	      2.57507030	      8.83352000	     18.30485608	     -9.52552654	      3.85854014	     -8.18617451	      2.57500977	      3.88300982	     -6.53396290	     -3.89771367
      4.68000000	     -6.38867890	      3.67421735	      6.04128759	     -0.75594804	     -0.00303177	     -0.30198005	     31.43950473	     -8.48680767	     -9.89501572	    -45.81340838	     -4.57936341	      4.52395869	     28.18962669	      2.17631213	      8.71186789	     18.68947703	     -9.43655999	      4.14231198	     -8.46787439	      1.70178661	      3.81063870	     -6.45503707	     -4.06894662
      4.68500000	     -6.47898762	      3.51847017	      6.19359686	     -0.75142095	     -0.00330866	     -0.30192020	     31.72760057	     -8.28353707	     -9.74735852	    -44.29556179	     -4.52568265	      4.63879757	     27.94834108	      1.94903469	      8.52607995	     18.90056955	     -9.40238478	      4.33416499	     -8.54209343	      1.66640296	      3.81645825	     -6.33909722	     -4.28462230
      4.69000000	     -6.35959141	      3.34714177	      6.43740137	     -0.74688327	     -0.00332149	     -0.30195463	     31.70910556	     -8.11257797	     -9.77843854	    -42.71875956	     -4.33869966	      4.71780125	     27.15364805	      1.45665606	      8.29964484	     19.36468946	     -9.32048142	      4.50591674	     -8.76219898	      1.30832257	      3.58060248	     -6.19590940	     -4.66908321
